<?xml version="1.0" standalone="no"?>
<!DOCTYPE svg PUBLIC "-//W3C//DTD SVG 20010904//EN"
 "http://www.w3.org/TR/2001/REC-SVG-20010904/DTD/svg10.dtd">
<svg version="1.0" xmlns="http://www.w3.org/2000/svg"
 width="452.000000pt" height="132.000000pt" viewBox="0 0 452.000000 132.000000"
 preserveAspectRatio="xMidYMid meet">

<g transform="translate(0.000000,132.000000) scale(0.100000,-0.100000)"
fill="#000000" stroke="none">
<path d="M0 1221 l0 -99 38 20 c72 38 204 4 276 -71 15 -15 41 -56 60 -91 l34
-63 17 55 c23 71 73 140 119 162 85 40 150 29 187 -31 l22 -35 36 35 c50 48
71 57 133 57 126 -1 207 -84 253 -259 32 -124 46 -485 24 -607 -19 -103 -38
-108 -94 -26 l-39 57 -1 230 c-3 329 -28 460 -101 524 -29 26 -43 31 -84 31
-43 0 -55 -5 -85 -32 l-35 -33 14 -41 c58 -162 87 -707 41 -753 -13 -13 -18
-13 -42 5 -15 11 -36 38 -47 60 -19 35 -22 63 -27 294 -8 309 -25 413 -77 473
-40 46 -124 -4 -160 -96 -39 -96 -46 -162 -48 -447 -1 -151 -2 -285 -3 -297
-1 -31 -26 -29 -48 3 -10 14 -29 39 -42 55 -22 28 -24 41 -32 237 -14 328 -38
453 -102 526 -28 33 -40 39 -82 43 -41 4 -55 1 -78 -17 l-27 -21 0 -535 0
-534 2260 0 2260 0 0 660 0 660 -2260 0 -2260 0 0 -99z m1826 -144 l-7 -193
60 -17 c33 -9 73 -17 88 -17 l28 -1 -43 -40 c-41 -38 -47 -41 -88 -36 l-44 5
0 -37 c0 -55 25 -149 45 -171 24 -27 45 -25 84 8 32 26 34 32 35 94 1 53 7 73
29 107 31 46 91 81 142 81 46 0 109 -34 140 -74 39 -52 45 -145 13 -201 -63
-108 -196 -124 -280 -33 -34 37 -37 38 -47 21 -15 -29 -84 -73 -123 -79 -23
-4 -46 0 -67 11 -48 24 -69 82 -75 207 l-5 103 -28 2 c-15 2 -37 -4 -47 -12
-19 -14 -19 -16 -3 -50 32 -68 14 -169 -40 -217 -26 -24 -87 -48 -120 -48 -14
0 -46 10 -71 21 -119 58 -136 233 -30 310 68 49 134 50 203 4 19 -14 35 -20
35 -15 0 5 19 22 43 37 23 15 47 32 52 39 6 7 12 70 14 140 1 71 7 138 13 149
14 26 79 95 91 95 6 0 7 -74 3 -193z m2120 0 l-7 -193 60 -17 c33 -9 73 -17
88 -17 l28 -1 -43 -40 c-41 -38 -47 -41 -88 -36 l-44 5 0 -37 c0 -55 25 -149
45 -171 25 -27 44 -25 87 10 36 29 37 33 31 79 -14 123 108 229 220 192 110
-37 161 -166 104 -266 -61 -107 -195 -124 -278 -34 l-36 39 -21 -29 c-30 -41
-104 -75 -149 -68 -43 7 -69 29 -85 73 l-12 33 -43 -40 c-68 -62 -136 -84
-184 -59 -32 18 -50 67 -56 157 l-6 86 -36 -71 c-41 -82 -87 -134 -142 -162
-63 -32 -86 -27 -145 34 l-52 53 -13 -25 c-20 -38 -87 -82 -123 -82 -42 0 -90
31 -106 69 l-12 31 -40 -36 c-72 -64 -137 -80 -194 -45 -41 25 -70 88 -85 186
-13 88 -20 100 -64 108 -29 5 -31 3 -72 -81 -46 -94 -69 -129 -79 -119 -4 3 7
28 24 54 33 52 71 131 72 149 0 7 -9 14 -19 17 -31 8 -43 40 -25 65 25 36 74
23 74 -19 0 -22 20 -29 80 -29 96 0 98 -2 134 -164 24 -104 49 -135 100 -122
48 12 84 54 102 117 21 73 84 149 145 173 23 9 43 15 45 13 2 -2 -16 -24 -41
-50 -26 -28 -48 -63 -55 -87 -27 -102 51 -190 116 -129 22 20 22 26 17 148
-13 297 84 511 232 511 68 0 52 -97 -56 -331 -33 -74 -63 -148 -66 -165 -7
-39 21 -128 54 -171 51 -69 112 -26 197 138 53 102 90 149 117 149 25 0 30
-22 36 -155 3 -66 10 -130 14 -142 14 -39 77 -24 127 29 21 23 22 32 18 119
-4 92 -4 94 -29 97 -14 2 -37 -4 -51 -14 -24 -15 -26 -15 -26 0 0 9 21 30 48
46 26 17 50 41 54 53 3 12 6 74 7 137 1 93 5 121 20 145 22 37 70 85 84 85 6
0 7 -66 3 -193z m-278 -33 c46 -32 17 -114 -40 -114 -26 0 -58 36 -58 65 0 29
32 65 58 65 10 0 28 -7 40 -16z"/>
<path d="M1451 806 c-54 -57 -44 -177 20 -230 41 -35 97 -35 129 -1 51 54 32
194 -32 239 -34 24 -90 20 -117 -8z"/>
<path d="M2132 807 c-33 -35 -43 -81 -30 -141 22 -102 120 -153 178 -91 52 56
32 195 -34 238 -37 25 -88 22 -114 -6z"/>
<path d="M3348 1195 c-39 -39 -61 -134 -71 -308 -2 -26 0 -44 4 -40 3 5 34 74
67 154 55 133 66 170 63 207 -2 20 -37 13 -63 -13z"/>
<path d="M4252 807 c-33 -35 -43 -81 -30 -141 15 -70 61 -116 115 -116 58 0
86 33 91 110 4 51 1 66 -22 104 -15 25 -35 50 -46 56 -34 18 -85 12 -108 -13z"/>
</g>
</svg>
